<mxfile host="app.diagrams.net" agent="Mozilla/5.0 (Windows NT 10.0; Win64; x64) AppleWebKit/537.36 (KHTML, like Gecko) Chrome/132.0.0.0 Safari/537.36" version="26.0.14">
  <diagram name="Página-1" id="Fz0eZvaox3beFVRlXR4F">
    <mxGraphModel grid="1" page="1" gridSize="10" guides="1" tooltips="1" connect="1" arrows="1" fold="1" pageScale="1" pageWidth="827" pageHeight="1169" math="0" shadow="0">
      <root>
        <mxCell id="0" />
        <mxCell id="1" parent="0" />
        <mxCell id="YMzhNEyh_wwC67be4PCF-10" style="edgeStyle=orthogonalEdgeStyle;rounded=0;orthogonalLoop=1;jettySize=auto;html=1;entryX=0.5;entryY=0;entryDx=0;entryDy=0;" edge="1" parent="1" source="YMzhNEyh_wwC67be4PCF-7" target="YMzhNEyh_wwC67be4PCF-9">
          <mxGeometry relative="1" as="geometry" />
        </mxCell>
        <mxCell id="YMzhNEyh_wwC67be4PCF-7" value="INICIO" style="rounded=1;whiteSpace=wrap;html=1;arcSize=50;" vertex="1" parent="1">
          <mxGeometry x="354" y="120" width="120" height="60" as="geometry" />
        </mxCell>
        <mxCell id="YMzhNEyh_wwC67be4PCF-8" value="FINAL" style="rounded=1;whiteSpace=wrap;html=1;arcSize=50;" vertex="1" parent="1">
          <mxGeometry x="354" y="740" width="120" height="60" as="geometry" />
        </mxCell>
        <mxCell id="YMzhNEyh_wwC67be4PCF-12" style="edgeStyle=orthogonalEdgeStyle;rounded=0;orthogonalLoop=1;jettySize=auto;html=1;entryX=0.5;entryY=0;entryDx=0;entryDy=0;" edge="1" parent="1" source="YMzhNEyh_wwC67be4PCF-9" target="YMzhNEyh_wwC67be4PCF-11">
          <mxGeometry relative="1" as="geometry" />
        </mxCell>
        <mxCell id="YMzhNEyh_wwC67be4PCF-9" value="Chegada do Cliente" style="rounded=0;whiteSpace=wrap;html=1;" vertex="1" parent="1">
          <mxGeometry x="354" y="220" width="120" height="60" as="geometry" />
        </mxCell>
        <mxCell id="YMzhNEyh_wwC67be4PCF-14" style="edgeStyle=orthogonalEdgeStyle;rounded=0;orthogonalLoop=1;jettySize=auto;html=1;entryX=0.5;entryY=0;entryDx=0;entryDy=0;" edge="1" parent="1" source="YMzhNEyh_wwC67be4PCF-11" target="YMzhNEyh_wwC67be4PCF-13">
          <mxGeometry relative="1" as="geometry" />
        </mxCell>
        <mxCell id="YMzhNEyh_wwC67be4PCF-11" value="Pedir ao cliente qual café ele quer" style="shape=parallelogram;perimeter=parallelogramPerimeter;whiteSpace=wrap;html=1;fixedSize=1;size=7;" vertex="1" parent="1">
          <mxGeometry x="354" y="300" width="120" height="60" as="geometry" />
        </mxCell>
        <mxCell id="YMzhNEyh_wwC67be4PCF-22" style="edgeStyle=orthogonalEdgeStyle;rounded=0;orthogonalLoop=1;jettySize=auto;html=1;entryX=0.5;entryY=0;entryDx=0;entryDy=0;" edge="1" parent="1" source="YMzhNEyh_wwC67be4PCF-13" target="YMzhNEyh_wwC67be4PCF-16">
          <mxGeometry relative="1" as="geometry">
            <Array as="points">
              <mxPoint x="300" y="440" />
            </Array>
          </mxGeometry>
        </mxCell>
        <mxCell id="YMzhNEyh_wwC67be4PCF-23" style="edgeStyle=orthogonalEdgeStyle;rounded=0;orthogonalLoop=1;jettySize=auto;html=1;" edge="1" parent="1" source="YMzhNEyh_wwC67be4PCF-13" target="YMzhNEyh_wwC67be4PCF-15">
          <mxGeometry relative="1" as="geometry">
            <Array as="points">
              <mxPoint x="534" y="440" />
            </Array>
          </mxGeometry>
        </mxCell>
        <mxCell id="YMzhNEyh_wwC67be4PCF-13" value="O café pedido é o expresso?" style="rhombus;whiteSpace=wrap;html=1;" vertex="1" parent="1">
          <mxGeometry x="341" y="390" width="146" height="100" as="geometry" />
        </mxCell>
        <mxCell id="YMzhNEyh_wwC67be4PCF-21" style="edgeStyle=orthogonalEdgeStyle;rounded=0;orthogonalLoop=1;jettySize=auto;html=1;entryX=1;entryY=0.5;entryDx=0;entryDy=0;" edge="1" parent="1" source="YMzhNEyh_wwC67be4PCF-15" target="YMzhNEyh_wwC67be4PCF-17">
          <mxGeometry relative="1" as="geometry" />
        </mxCell>
        <mxCell id="YMzhNEyh_wwC67be4PCF-15" value="Prepare o café Latte" style="rounded=0;whiteSpace=wrap;html=1;" vertex="1" parent="1">
          <mxGeometry x="474" y="525" width="120" height="60" as="geometry" />
        </mxCell>
        <mxCell id="YMzhNEyh_wwC67be4PCF-20" style="edgeStyle=orthogonalEdgeStyle;rounded=0;orthogonalLoop=1;jettySize=auto;html=1;entryX=0;entryY=0.5;entryDx=0;entryDy=0;" edge="1" parent="1" source="YMzhNEyh_wwC67be4PCF-16" target="YMzhNEyh_wwC67be4PCF-17">
          <mxGeometry relative="1" as="geometry" />
        </mxCell>
        <mxCell id="YMzhNEyh_wwC67be4PCF-16" value="Prepare o café expresso" style="rounded=0;whiteSpace=wrap;html=1;" vertex="1" parent="1">
          <mxGeometry x="240" y="525" width="120" height="60" as="geometry" />
        </mxCell>
        <mxCell id="YMzhNEyh_wwC67be4PCF-24" style="edgeStyle=orthogonalEdgeStyle;rounded=0;orthogonalLoop=1;jettySize=auto;html=1;entryX=0.5;entryY=0;entryDx=0;entryDy=0;" edge="1" parent="1" source="YMzhNEyh_wwC67be4PCF-17" target="YMzhNEyh_wwC67be4PCF-8">
          <mxGeometry relative="1" as="geometry" />
        </mxCell>
        <mxCell id="YMzhNEyh_wwC67be4PCF-17" value="Entregue ao cliente" style="rounded=0;whiteSpace=wrap;html=1;" vertex="1" parent="1">
          <mxGeometry x="354" y="640" width="120" height="60" as="geometry" />
        </mxCell>
        <mxCell id="FkQv757c6zN9m9cyu9Hf-1" value="Sim" style="text;html=1;align=center;verticalAlign=middle;resizable=0;points=[];autosize=1;strokeColor=none;fillColor=none;" vertex="1" parent="1">
          <mxGeometry x="310" y="410" width="40" height="30" as="geometry" />
        </mxCell>
        <mxCell id="FkQv757c6zN9m9cyu9Hf-2" value="Não" style="text;html=1;align=center;verticalAlign=middle;resizable=0;points=[];autosize=1;strokeColor=none;fillColor=none;" vertex="1" parent="1">
          <mxGeometry x="469" y="410" width="50" height="30" as="geometry" />
        </mxCell>
      </root>
    </mxGraphModel>
  </diagram>
</mxfile>
